<svg xmlns="http://www.w3.org/2000/svg" viewBox="0 0 228.08 54.39"><g id="レイヤー_2" data-name="レイヤー 2"><g id="レイヤー_1-2" data-name="レイヤー 1"><rect x="66.29" y="10.88" width="5.44" height="32.63"/><path d="M77.16,10.88H74.44v5.44h2.72a10.88,10.88,0,1,1,0,21.75H74.44v5.44h2.72a16.32,16.32,0,1,0,0-32.63"/><path d="M124.65,32.63a10.87,10.87,0,0,1-20-2.72h26.62a16.28,16.28,0,1,0-.7,2.72Zm-9.42-16.31a10.88,10.88,0,0,1,10.54,8.15H104.7a10.86,10.86,0,0,1,10.53-8.15"/><polygon points="213.24 10.88 207.46 10.88 195.45 43.51 201.24 43.51 213.24 10.88"/><polygon points="216.08 10.88 213.19 18.76 217.51 30.5 208.86 30.5 206.86 35.93 219.51 35.93 222.29 43.51 228.08 43.51 216.08 10.88"/><rect x="138.35" y="10.88" width="5.44" height="32.63"/><polygon points="165.54 10.88 154.66 17.16 146.5 12.45 146.5 18.73 154.66 23.44 165.54 17.16 165.54 43.51 170.98 43.51 170.98 10.88 165.54 10.88"/><polygon points="187.29 13.6 187.29 10.88 181.85 10.88 181.85 19.04 187.29 13.6"/><polygon points="181.85 22.88 181.85 43.51 187.29 43.51 187.29 17.44 181.85 22.88"/><polygon points="20.61 52.69 20.61 25.49 44.16 11.9 39.25 9.06 15.7 22.66 15.7 49.85 20.61 52.69"/><polygon points="4.91 43.62 4.91 16.43 28.46 2.83 23.55 0 0 13.6 0 40.79 4.91 43.62"/><polygon points="12.76 48.15 12.76 20.96 36.31 7.37 31.4 4.53 7.85 18.13 7.85 45.32 12.76 48.15"/><path d="M31.1,27c1.51-.9,3-.48,3.61.77L47.1,20.58v-7L23.55,27.19v27.2L47.1,40.79v-7L34.71,41a8.67,8.67,0,0,1-3.64,4.93,2.46,2.46,0,0,1-3.92-2.27,8.66,8.66,0,0,1,3.92-6.8c1.5-.89,3-.48,3.6.76L47.1,30.4V24L34.73,31.12A8.56,8.56,0,0,1,31.1,36a2.46,2.46,0,0,1-3.92-2.26A8.64,8.64,0,0,1,31.1,27"/></g></g></svg>