<svg xmlns="http://www.w3.org/2000/svg" viewBox="0 0 235.58 94.24"><defs><style>.cls-1{fill:#28c04a;}</style></defs><g id="レイヤー_2" data-name="レイヤー 2"><g id="レイヤー_1-2" data-name="レイヤー 1"><path d="M92.48,86a8.88,8.88,0,0,1-3.39,5.8,10,10,0,0,1-6.54,2.44H73.67q-7.83,0-7.77-8.24h4.45c-.15,2.73,1.13,4.1,3.86,4.1h4.44a5.11,5.11,0,0,0,3.29-1.21A4.45,4.45,0,0,0,83.64,86Z"/><path d="M88.1,53h8.73L93,81.86H84.18l.55-4.14c-.71,2.76-2.38,4.14-5,4.14H75.29a7.77,7.77,0,0,1-5.92-2.43,6.82,6.82,0,0,1-1.84-5.81l1.63-12.38a9,9,0,0,1,3.39-5.85A10,10,0,0,1,79.1,53H85l-.67,4.14H83a5.05,5.05,0,0,0-3.3,1.22A4.48,4.48,0,0,0,78,61.24L76.38,73.62a3.36,3.36,0,0,0,.92,2.88,3.9,3.9,0,0,0,3,1.22,5,5,0,0,0,3.31-1.22,4.47,4.47,0,0,0,1.68-2.88L87.44,57.1Z"/><path class="cls-1" d="M88.5,48.86,89,44.72h8.85l-.55,4.14Z"/><path d="M103.36,81.86,107.17,53H116l-.54,4.14A5.75,5.75,0,0,1,117.26,54a4.82,4.82,0,0,1,3.2-1h4.44a7.74,7.74,0,0,1,5.92,2.45,6.86,6.86,0,0,1,1.84,5.83l-2.72,20.62H121.1l2.71-20.62a3.4,3.4,0,0,0-.93-2.92,3.93,3.93,0,0,0-3-1.22,5,5,0,0,0-3.29,1.22,4.49,4.49,0,0,0-1.7,2.92l-2.71,20.62Z"/><path d="M167,69.48H149.26L148,77.62a3.36,3.36,0,0,0,.92,2.88,3.88,3.88,0,0,0,3,1.22h39.88q4.41,0,5-4.1h4.44q-2.12,8.23-9.93,8.24H146.86a7.77,7.77,0,0,1-5.92-2.43,6.79,6.79,0,0,1-1.84-5.81l2.4-16.38a9,9,0,0,1,3.39-5.85A10,10,0,0,1,151.44,53h8.88a7.72,7.72,0,0,1,5.92,2.45,6.8,6.8,0,0,1,1.84,5.83Zm-17.19-4.14h8.89l.54-4.1a3.43,3.43,0,0,0-.94-2.92,3.91,3.91,0,0,0-3-1.22,5.05,5.05,0,0,0-3.3,1.22,4.48,4.48,0,0,0-1.69,2.92Z"/><path d="M202.42,69.48H184.69l-1.3,8.12a3.39,3.39,0,0,0,.92,2.89,3.87,3.87,0,0,0,3,1.21h4.44c2.94,0,4.59-1.36,5-4.1h4.44q-2.12,8.25-9.93,8.24H182.3a7.8,7.8,0,0,1-5.92-2.42,6.8,6.8,0,0,1-1.84-5.82l2.39-16.36a9,9,0,0,1,3.38-5.85A10,10,0,0,1,186.86,53h8.89a7.74,7.74,0,0,1,5.92,2.45,6.86,6.86,0,0,1,1.84,5.83Zm-17.19-4.14h8.89l.54-4.1a3.4,3.4,0,0,0-.93-2.92,3.93,3.93,0,0,0-3-1.22,5,5,0,0,0-3.29,1.22,4.49,4.49,0,0,0-1.7,2.92Z"/><path d="M218.49,81.86h-8.85l3.8-28.9h8.85l-1.09,8.28A11.47,11.47,0,0,1,224.76,55,9.71,9.71,0,0,1,231.18,53h4.4l-1.09,8.28h-8.85a5,5,0,0,0-3.29,1.21,4.42,4.42,0,0,0-1.69,2.89Z"/><path d="M0,81.86,5,44.72H27.14l-.56,4.14H13.29L11.62,61.24h8.89L20,65.34H11.07L9.4,77.72H22.69l-.55,4.14Z"/><path d="M31,81.86,34.92,53h8.84l-.55,4.14A5.69,5.69,0,0,1,45,54a4.84,4.84,0,0,1,3.2-1h4.44a7.72,7.72,0,0,1,5.91,2.45,6.79,6.79,0,0,1,1.82,5.83L57.6,81.86H48.76l2.78-20.62a3.4,3.4,0,0,0-.93-2.92,3.91,3.91,0,0,0-3-1.22,5.05,5.05,0,0,0-3.3,1.22,4.49,4.49,0,0,0-1.7,2.92L39.87,81.86Z"/><path d="M0,37.34,4.81,0H22.54a7.74,7.74,0,0,1,5.92,2.45,6.85,6.85,0,0,1,1.86,5.83l-.27,2.1A8.56,8.56,0,0,1,27.1,16.1a12.68,12.68,0,0,1-7,2.57c2.94,0,5.05.83,6.31,2.5A7.61,7.61,0,0,1,27.92,27l-.27,2.1a9,9,0,0,1-3.38,5.83,9.94,9.94,0,0,1-6.54,2.46Zm9.38-4.16h4.45A5,5,0,0,0,17.11,32a4.42,4.42,0,0,0,1.69-2.9l.53-4.16q.54-4.16-3.9-4.16H11Zm2.13-16.57H16a5,5,0,0,0,3.28-1.24,4.5,4.5,0,0,0,1.7-2.92l.53-4.17a3.37,3.37,0,0,0-.94-2.9,4,4,0,0,0-3-1.22H13.12Z"/><path d="M63.61,24.89H45.87l-.53,4.16a3.39,3.39,0,0,0,.92,2.9,3.89,3.89,0,0,0,3,1.23h4.44c2.94,0,4.58-1.38,4.94-4.13h4.44q-2.1,8.29-9.91,8.29H44.27a7.73,7.73,0,0,1-5.92-2.44,6.87,6.87,0,0,1-1.86-5.85l1.6-12.44a9,9,0,0,1,3.38-5.88A10,10,0,0,1,48,8.28H56.9a7.75,7.75,0,0,1,5.92,2.46,6.89,6.89,0,0,1,1.85,5.87Zm-17.2-4.16H55.3l.53-4.12a3.47,3.47,0,0,0-.94-2.94,4,4,0,0,0-3-1.22,5.05,5.05,0,0,0-3.3,1.22,4.55,4.55,0,0,0-1.68,2.94Z"/></g></g></svg>